<svg id="Layer_1" enable-background="new 0 0 512 512" height="512" viewBox="0 0 512 512" width="512" xmlns="http://www.w3.org/2000/svg"><g><g><g><g><path d="m239.419 106.705c-36.215 0-70.127 9.805-99.224 26.885-28.431-25.364-65.204-17.734-65.976-17.543l15.226 60.332c-20.138 23.884-34.638 52.646-41.458 84.253h-11.996c-15.735 0-28.491 12.711-28.491 28.392v50.468c0 15.68 12.756 28.392 28.491 28.392h19.12c9.192 25.46 23.539 48.469 41.793 67.77 7.912 8.366 12.446 19.354 12.446 30.858v22.055 5.187c0 5.935 4.822 10.747 10.769 10.747h41.214c5.948 0 10.769-4.812 10.769-10.747v-5.187c0-7.824 6.356-14.166 14.195-14.166h106.243c7.84 0 14.195 6.342 14.195 14.166v5.187c0 5.935 4.822 10.747 10.769 10.747h41.214c5.948 0 10.769-4.812 10.769-10.747v-5.187-21.885c0-11.384 4.256-22.411 12.107-30.67 33.247-34.971 53.647-82.192 53.647-134.168.001-107.772-87.672-195.139-195.822-195.139z" fill="#fd6dc3"/><g fill="#fd53b9"><path d="m142.103 488.566v5.187c0 5.935-4.822 10.747-10.769 10.747h30c5.948 0 10.769-4.812 10.769-10.747v-5.187c0-7.824 6.356-14.166 14.195-14.166h-30c-7.839 0-14.195 6.343-14.195 14.166z"/><path d="m239.419 106.705c-5.031 0-10.017.196-14.952.568 101.119 7.657 180.775 91.844 180.775 194.571 0 51.976-20.399 99.197-53.646 134.168-7.852 8.259-12.107 19.286-12.107 30.67v21.885 5.187c0 5.935-4.822 10.747-10.769 10.747h30c5.948 0 10.769-4.812 10.769-10.747v-5.187-21.885c0-11.384 4.256-22.411 12.107-30.67 33.247-34.971 53.646-82.192 53.646-134.168 0-107.772-87.673-195.139-195.823-195.139z"/></g></g></g><g><path d="m188.26 188.998c-6.293 0-12.319-3.571-15.144-9.643-3.881-8.341-.252-18.243 8.106-22.116 19.033-8.821 39.486-13.234 59.934-13.234 20.304 0 40.603 4.347 59.531 13.046 8.37 3.846 12.031 13.737 8.176 22.091-2.813 6.097-8.853 9.69-15.166 9.69-2.335 0-4.708-.492-6.969-1.531-14.488-6.658-30.031-9.987-45.573-9.987-15.655 0-31.308 3.377-45.88 10.13-2.273 1.055-4.663 1.554-7.015 1.554z" fill="#ffadde"/><g><g><g><ellipse cx="240.979" cy="81.176" fill="#fdf486" rx="73.942" ry="73.676"/><path d="m240.979 7.5c-5.14 0-10.156.525-15 1.519 33.645 6.908 58.943 36.588 58.943 72.157s-25.297 65.249-58.943 72.157c4.844.995 9.86 1.519 15 1.519 40.837 0 73.943-32.986 73.943-73.676s-33.106-73.676-73.943-73.676z" fill="#fdf056"/></g></g></g></g></g><g fill="#060606"><path d="m499.367 259.97c-2.213 2.433-4.913 4.489-7.882 6.059-.509-7.214-2.739-14.217-6.916-19.835-4.765-6.409-12.091-10.88-20.289-10.087-7.783.753-14.68 5.79-17.364 13.207-5.322 14.709 7.723 29.832 21.284 33.624 1.592.445 3.217.759 4.855.986-5.837 10.681-18.307 16.057-30.327 16.42-.303-41.852-13.276-81.904-37.579-115.918-22.718-31.794-53.612-56.074-89.652-70.552 4.439-10.011 6.924-21.067 6.924-32.697 0-44.761-36.535-81.177-81.442-81.177s-81.442 36.416-81.442 81.176c0 11.23 2.302 21.933 6.457 31.669-8.572 3.314-16.944 7.21-24.996 11.657-31.042-24.095-68.194-15.831-68.578-15.737-4.349 1.523-6.173 4.561-5.471 9.116l14.295 56.647c-18.657 23.014-32.119 50.006-39.215 78.602h-6.037c-19.846.001-35.992 16.102-35.992 35.893v50.468c0 19.791 16.146 35.892 35.991 35.892h13.927c9.493 24.31 23.45 46.299 41.538 65.423 6.703 7.088 10.395 16.217 10.395 25.705v27.242c0 10.062 8.195 18.247 18.269 18.247h41.214c10.074 0 18.269-8.186 18.269-18.247v-5.187c0-3.676 3.003-6.666 6.695-6.666h106.242c3.692 0 6.695 2.99 6.695 6.666v5.187c0 10.062 8.195 18.247 18.269 18.247h41.214c10.074 0 18.269-8.186 18.269-18.247v-27.071c0-9.634 3.566-18.69 10.042-25.501 8.31-8.74 15.879-18.269 22.498-28.32 5.333-8.099-7.195-16.348-12.528-8.249-6.131 9.311-13.143 18.137-20.841 26.233-9.139 9.612-14.171 22.339-14.171 35.837v27.071c0 1.791-1.466 3.247-3.269 3.247h-41.214c-1.803 0-3.269-1.457-3.269-3.247v-5.187c0-11.947-9.732-21.666-21.695-21.666h-106.242c-11.963 0-21.695 9.719-21.695 21.666v5.187c0 1.791-1.466 3.247-3.269 3.247h-41.214c-1.803 0-3.269-1.457-3.269-3.247v-27.242c0-13.337-5.148-26.127-14.497-36.011-17.883-18.908-31.404-40.833-40.188-65.164-1.073-2.972-3.894-4.953-7.054-4.953h-19.121c-11.575 0-20.991-9.372-20.991-20.892v-50.468c0-11.52 9.417-20.892 20.991-20.892h11.996c3.533 0 6.586-2.465 7.331-5.918 6.398-29.651 20.182-57.661 39.861-81 1.557-1.846 2.129-4.329 1.538-6.669l-13.144-52.084c11.431-.677 33.501.554 51.63 16.727 2.431 2.168 5.982 2.52 8.79.871 9.308-5.464 19.119-10.136 29.219-13.92 4.861 7.255 10.87 13.678 17.755 19.036-4.378 1.556-8.687 3.31-12.897 5.261-28.335 13.129-7.766 56.854 20.361 43.815 13.51-6.261 27.885-9.435 42.726-9.435 14.731 0 29.01 3.13 42.44 9.302 28.23 12.976 48.56-30.856 20.223-43.88-4.156-1.91-8.407-3.622-12.721-5.147 6.541-5.107 12.286-11.178 17.005-18.012 34.151 13.318 63.42 36.086 84.842 66.068 22.765 31.86 34.798 69.448 34.798 108.698 0 23.138-4.176 45.722-12.412 67.127-3.39 8.808 10.507 14.464 13.999 5.387 7.284-18.93 11.625-38.709 12.963-58.965 17.23-.012 34.404-8.325 43.356-23.441 1.666-2.812 2.997-5.917 3.977-9.181 7.784-2.115 15.022-6.337 20.349-12.195 6.48-7.128-4.098-17.767-10.609-10.606zm-201.812-96.103c10.611 4.876 2.758 21.425-7.695 16.621-15.409-7.082-31.796-10.672-48.705-10.672-17.035 0-33.532 3.642-49.033 10.826-10.359 4.8-18.501-11.613-7.747-16.597 7.715-3.576 15.796-6.429 24.024-8.491 9.984 4.362 20.998 6.799 32.579 6.799 11.626 0 22.682-2.458 32.697-6.852 8.176 2.033 16.203 4.837 23.88 8.366zm-56.576-16.515c-36.636 0-66.442-29.687-66.442-66.176 0-36.49 29.806-66.176 66.442-66.176s66.442 29.687 66.442 66.176c0 36.49-29.806 66.176-66.442 66.176zm221.2 113.177c-1.917-3.67-2.09-8.752 3.109-9.508 5.233-.761 8.626 5.419 9.909 9.553.863 2.779 1.29 5.73 1.325 8.689-1.285-.11-2.564-.317-3.824-.645-4.542-1.181-8.319-3.879-10.519-8.089z"/><path d="m249.724 74.683c-5.541-1.95-11.657-4.297-15.01-6.916-2.981-2.327.973-7.532 3.049-8.155 6.035-1.809 9.866 1.213 10.283 1.563 0 0 4.954 4.075 9.954-.925 5.5-5.5.08-10.223.08-10.223-1.941-1.783-5.442-3.949-9.985-5.122v-3.963c0-9.697-15-9.697-15 0v4.424c-13.652 4.381-19.951 24.587-7.614 34.222 5.044 3.94 12.239 6.771 19.262 9.243 5.182 1.824 5.344 5.747 4.979 7.922-.621 3.71-3.758 7.719-9.178 7.755-5.818.049-7.467-.221-11.836-3.067-3.471-2.262-8.118-1.28-10.378 2.19-2.261 3.471-1.28 8.117 2.19 10.378 4.781 3.114 8.398 4.52 12.573 5.112v4.143c0 9.697 15 9.697 15 0v-4.933c9.202-2.962 15.079-11.084 16.422-19.102 1.832-10.922-4.113-20.788-14.791-24.546z"/><path d="m106.657 256.3c9.652 0 9.668-15 0-15-9.652 0-9.668 15 0 15z"/></g></g></svg>